<?xml version="1.0" standalone="no"?>
<!DOCTYPE svg PUBLIC "-//W3C//DTD SVG 20010904//EN"
 "http://www.w3.org/TR/2001/REC-SVG-20010904/DTD/svg10.dtd">
<svg version="1.0" xmlns="http://www.w3.org/2000/svg"
 width="1016.000000pt" height="574.000000pt" viewBox="0 0 1016.000000 574.000000"
 preserveAspectRatio="xMidYMid meet">

<g transform="translate(0.000000,574.000000) scale(0.100000,-0.100000)"
fill="#000000" stroke="none">
<path d="M4000 3010 l0 -1540 433 0 c560 0 696 14 908 91 400 146 755 496 908
894 189 495 110 1067 -204 1475 -229 296 -537 501 -871 578 -147 34 -287 42
-741 42 l-433 0 0 -1540z m887 1070 c268 -21 468 -110 661 -294 245 -235 341
-476 329 -826 -5 -154 -17 -220 -61 -340 -85 -231 -327 -485 -562 -590 -165
-75 -329 -100 -646 -100 l-148 0 0 1080 0 1080 148 0 c81 0 206 -5 279 -10z"/>
<path d="M6760 3010 l0 -1540 235 0 235 0 0 498 0 499 72 89 73 90 484 -588
484 -588 304 0 304 0 -114 137 c-578 699 -1157 1406 -1157 1411 0 4 82 108
182 232 497 617 1038 1291 1038 1295 0 3 -134 5 -297 5 l-298 -1 -535 -665
-535 -666 -3 666 -2 666 -235 0 -235 0 0 -1540z"/>
<path d="M1340 3920 l0 -80 -75 0 -75 0 0 -75 0 -75 -80 0 -80 0 0 -75 0 -75
80 0 80 0 0 -75 0 -75 -80 0 -80 0 0 -75 0 -75 80 0 80 0 0 -75 0 -75 -80 0
-80 0 0 -75 0 -75 80 0 80 0 0 -75 0 -75 -80 0 -80 0 0 -75 0 -75 80 0 80 0 0
-75 0 -75 -80 0 -80 0 0 -75 0 -75 80 0 79 0 3 -72 3 -73 73 -3 72 -3 0 -79 0
-80 75 0 75 0 0 80 0 80 75 0 75 0 0 -80 0 -80 75 0 75 0 0 80 0 80 80 0 80 0
0 -80 0 -80 70 0 70 0 0 80 0 80 80 0 80 0 0 -80 0 -80 75 0 75 0 0 80 0 80
75 0 75 0 0 -80 0 -80 75 0 75 0 0 80 0 79 73 3 72 3 3 73 3 72 79 0 80 0 0
75 0 75 -80 0 -80 0 0 75 0 75 80 0 80 0 0 75 0 75 -80 0 -80 0 0 75 0 75 80
0 80 0 0 75 0 75 -80 0 -80 0 0 75 0 75 80 0 80 0 0 75 0 75 -80 0 -80 0 0 75
0 75 80 0 80 0 0 75 0 74 -82 3 -83 3 -3 73 -3 72 -69 0 -70 0 0 80 0 80 -75
0 -75 0 0 -80 0 -81 -77 3 -78 3 -3 78 -3 77 -69 0 -70 0 0 -80 0 -81 -77 3
-78 3 -3 78 -3 77 -69 0 -70 0 0 -80 0 -81 -77 3 -78 3 -3 78 -3 77 -74 0 -75
0 0 -80 0 -80 -75 0 -75 0 0 80 0 80 -75 0 -75 0 0 -80z m1360 -900 l0 -680
-680 0 -680 0 0 673 c0 371 3 677 7 680 3 4 309 7 680 7 l673 0 0 -680z"/>
<path d="M1660 3015 l0 -355 360 0 360 0 0 355 0 355 -360 0 -360 0 0 -355z"/>
</g>
</svg>
